<?xml version="1.0" standalone="no"?>
<!DOCTYPE svg PUBLIC "-//W3C//DTD SVG 20010904//EN"
 "http://www.w3.org/TR/2001/REC-SVG-20010904/DTD/svg10.dtd">
<svg version="1.0" xmlns="http://www.w3.org/2000/svg"
 width="300.000000pt" height="300.000000pt" viewBox="0 0 300.000000 300.000000"
 preserveAspectRatio="xMidYMid meet">
<metadata>
Created by potrace 1.11, written by Peter Selinger 2001-2013
</metadata>
<g transform="translate(0.000000,300.000000) scale(0.100000,-0.100000)"
fill="#000000" stroke="none">
<path d="M1913 2655 c0 -8 4 -12 9 -9 5 3 6 10 3 15 -9 13 -12 11 -12 -6z"/>
<path d="M830 2559 c0 -5 5 -7 10 -4 6 3 10 8 10 11 0 2 -4 4 -10 4 -5 0 -10
-5 -10 -11z"/>
<path d="M2110 2560 c0 -5 5 -10 11 -10 5 0 7 5 4 10 -3 6 -8 10 -11 10 -2 0
-4 -4 -4 -10z"/>
<path d="M2475 2560 c-3 -5 -1 -10 4 -10 6 0 11 5 11 10 0 6 -2 10 -4 10 -3 0
-8 -4 -11 -10z"/>
<path d="M1726 2522 c-3 -5 1 -9 9 -9 8 0 12 4 9 9 -3 4 -7 8 -9 8 -2 0 -6 -4
-9 -8z"/>
<path d="M1883 2518 c-24 -11 -48 -69 -40 -92 3 -8 0 -19 -6 -26 -7 -7 -7 -10
-1 -7 13 8 48 -69 38 -84 -4 -8 -3 -9 5 -5 12 8 88 -62 83 -76 -1 -4 6 -4 15
-1 12 5 14 3 8 -7 -5 -8 -4 -11 3 -6 6 3 21 2 35 -3 45 -18 86 -20 98 -5 6 8
16 11 23 7 6 -3 8 -3 4 2 -4 4 -4 13 1 19 24 29 11 112 -24 164 -13 20 -21 40
-18 46 3 6 3 8 -2 4 -7 -6 -23 4 -82 52 -7 6 -17 10 -23 10 -5 0 -10 3 -10 8
0 11 -83 12 -107 0z"/>
<path d="M955 2501 c-3 -5 -2 -12 3 -15 5 -3 9 1 9 9 0 17 -3 19 -12 6z"/>
<path d="M2556 2447 c3 -10 9 -15 12 -12 3 3 0 11 -7 18 -10 9 -11 8 -5 -6z"/>
<path d="M1665 2360 c-3 -6 1 -7 9 -4 18 7 21 14 7 14 -6 0 -13 -4 -16 -10z"/>
<path d="M2186 2362 c-3 -5 1 -9 9 -9 8 0 12 4 9 9 -3 4 -7 8 -9 8 -2 0 -6 -4
-9 -8z"/>
<path d="M2176 2313 c-6 -14 -5 -15 5 -6 7 7 10 15 7 18 -3 3 -9 -2 -12 -12z"/>
<path d="M682 2282 c-7 -5 -30 -8 -51 -8 -22 1 -37 -1 -35 -3 2 -2 -13 -12
-34 -21 -20 -9 -51 -31 -69 -48 -17 -17 -34 -28 -38 -24 -5 4 -5 2 -2 -4 4 -7
0 -17 -9 -24 -8 -7 -27 -38 -41 -69 -38 -82 -43 -187 -13 -277 12 -38 23 -75
23 -81 0 -7 2 -11 5 -8 8 8 52 -66 46 -77 -4 -6 -3 -8 3 -5 5 3 29 -14 53 -38
24 -24 63 -57 87 -72 23 -15 40 -29 35 -32 -7 -6 -9 -15 -14 -73 -1 -16 -5
-28 -8 -28 -3 0 -6 -29 -6 -65 -1 -38 -8 -72 -15 -82 -10 -12 -10 -15 -1 -9 9
5 12 -4 13 -36 2 -45 4 -61 15 -118 4 -19 7 -45 8 -57 0 -13 4 -23 8 -23 4 0
8 -5 8 -11 0 -5 -4 -8 -8 -5 -4 2 -9 -4 -9 -15 -1 -10 3 -19 8 -19 6 0 7 5 4
10 -3 6 -2 10 3 10 4 0 19 -26 32 -57 12 -32 29 -65 37 -74 11 -14 11 -18 0
-27 -8 -7 -18 -8 -22 -4 -5 4 -5 1 0 -6 5 -10 10 -11 18 -3 6 6 14 11 18 11 8
0 24 -40 21 -52 -1 -5 4 -8 11 -8 15 0 107 -103 107 -119 0 -6 6 -10 13 -9 6
2 11 -3 9 -10 -1 -8 1 -11 5 -9 11 7 84 -48 76 -57 -3 -3 3 -6 15 -6 12 0 22
-5 22 -11 0 -6 -9 -8 -20 -4 -11 3 -20 3 -20 -2 0 -12 38 -14 45 -3 8 13 85
-33 85 -50 -1 -11 -4 -10 -15 4 -8 11 -15 15 -15 9 0 -6 7 -16 15 -23 12 -10
16 -9 21 4 5 13 10 14 27 4 12 -7 26 -11 30 -10 4 1 10 -5 13 -13 4 -8 10 -15
16 -15 5 0 6 5 2 11 -4 7 -1 10 7 7 8 -3 14 -10 14 -16 0 -14 14 -17 23 -6 4
4 1 4 -7 -1 -9 -5 -12 -4 -8 2 4 6 18 8 32 6 13 -3 22 -9 19 -14 -3 -5 0 -9 5
-9 6 0 11 5 11 11 0 7 7 8 18 4 9 -4 34 -8 54 -7 21 0 35 -4 33 -8 -3 -5 -1
-12 5 -15 6 -4 9 -1 8 7 -2 9 11 14 42 15 25 1 47 2 50 3 3 1 16 3 30 6 14 2
39 6 55 9 17 3 32 5 35 5 3 0 38 11 78 24 40 14 70 21 67 16 -3 -5 0 -12 6
-16 7 -4 9 -3 6 2 -8 14 4 27 37 42 24 11 31 11 37 0 7 -10 9 -10 9 2 0 13 54
47 62 38 2 -2 10 3 18 10 15 13 145 93 200 123 16 9 26 19 23 23 -4 4 1 4 12
0 11 -4 17 -4 13 1 -4 4 2 16 14 26 25 23 39 24 32 4 -4 -8 -11 -12 -17 -8 -6
4 -7 1 -2 -7 6 -10 11 -10 20 3 7 9 16 13 20 9 4 -4 3 3 -4 15 -9 18 -8 23 9
28 11 3 20 11 20 17 0 5 7 7 16 4 8 -3 13 -2 10 3 -3 5 6 21 20 36 20 21 24
34 19 56 -4 16 -3 29 2 28 20 -3 34 3 76 35 25 19 49 31 53 28 4 -4 4 -1 0 5
-4 7 -2 13 3 13 6 0 10 3 9 8 -4 13 13 52 23 52 5 0 8 3 7 8 -1 4 6 24 15 46
9 21 17 43 17 48 0 6 8 4 18 -3 15 -12 16 -12 4 2 -7 9 -10 23 -8 30 3 8 10
33 16 57 7 28 15 40 23 36 9 -5 9 -4 0 6 -7 8 -8 22 -2 43 5 18 9 46 9 64 0
17 6 34 13 36 9 4 9 6 -1 6 -7 1 -10 6 -7 12 8 12 8 135 0 216 -7 63 -18 105
-47 170 -10 24 -18 47 -18 53 0 5 -4 10 -10 10 -5 0 -10 4 -10 10 0 25 -75 97
-117 112 -18 7 -33 15 -33 18 0 12 -85 3 -108 -11 -29 -18 -47 -78 -32 -109 4
-8 19 -38 34 -66 27 -53 59 -181 47 -188 -4 -3 -6 -22 -5 -43 0 -21 -3 -44 -9
-50 -5 -7 -7 -13 -4 -13 2 0 -1 -17 -9 -37 -7 -21 -17 -37 -23 -36 -6 2 -7 -5
-4 -14 4 -11 3 -14 -5 -9 -7 4 -10 2 -7 -6 6 -16 -40 -72 -53 -64 -6 3 -9 -2
-8 -11 0 -10 -8 -19 -19 -21 -11 -2 -17 -1 -14 3 4 3 -3 16 -15 29 -29 31 -90
107 -95 118 -1 5 -14 20 -28 34 -13 13 -21 29 -18 34 4 6 -1 7 -11 3 -13 -5
-16 -3 -11 10 4 10 2 16 -5 14 -6 -1 -17 9 -25 23 -7 14 -13 22 -13 17 0 -4
-26 20 -57 54 -32 34 -57 66 -55 71 1 5 -1 7 -6 4 -12 -7 -54 38 -45 49 5 4 3
5 -4 1 -7 -4 -28 9 -50 31 -46 46 -209 177 -278 223 -27 19 -52 36 -55 39 -3
3 -41 25 -85 48 -78 40 -164 70 -195 68 -8 -1 -21 3 -27 8 -9 6 -13 6 -13 -1
0 -6 -9 -13 -20 -17 -11 -3 -34 -26 -51 -50 -18 -25 -36 -42 -42 -38 -6 3 -7
1 -3 -5 3 -6 2 -13 -4 -17 -10 -6 -15 9 -10 30 1 5 -2 7 -5 3 -4 -4 -31 12
-59 36 -61 52 -125 86 -161 86 -15 0 -24 4 -20 10 7 12 4 12 -13 2z m45 -234
c7 -6 10 -15 6 -21 -4 -6 -1 -7 6 -2 16 9 85 -61 75 -77 -4 -7 -3 -8 4 -4 20
12 13 -23 -8 -44 -11 -11 -19 -26 -17 -32 1 -7 -4 -12 -11 -10 -8 1 -11 -2 -7
-7 9 -15 -24 -73 -37 -65 -7 4 -8 3 -4 -5 8 -13 -14 -81 -26 -81 -11 0 -98 85
-98 96 0 4 -7 15 -16 25 -8 9 -16 29 -18 43 -1 14 -5 28 -8 31 -9 10 2 78 19
113 26 54 98 75 140 40z"/>
<path d="M610 2026 c0 -2 7 -7 16 -10 8 -3 12 -2 9 4 -6 10 -25 14 -25 6z"/>
<path d="M706 1882 c-3 -5 1 -9 9 -9 8 0 12 4 9 9 -3 4 -7 8 -9 8 -2 0 -6 -4
-9 -8z"/>
<path d="M435 2240 c-3 -5 -1 -10 4 -10 6 0 11 5 11 10 0 6 -2 10 -4 10 -3 0
-8 -4 -11 -10z"/>
<path d="M910 2240 c0 -5 5 -10 11 -10 5 0 7 5 4 10 -3 6 -8 10 -11 10 -2 0
-4 -4 -4 -10z"/>
<path d="M1875 2240 c-3 -5 -1 -10 4 -10 6 0 11 5 11 10 0 6 -2 10 -4 10 -3 0
-8 -4 -11 -10z"/>
<path d="M2310 2206 c0 -2 7 -7 16 -10 8 -3 12 -2 9 4 -6 10 -25 14 -25 6z"/>
<path d="M1430 2126 c0 -2 7 -7 16 -10 8 -3 12 -2 9 4 -6 10 -25 14 -25 6z"/>
<path d="M2234 2096 c1 -8 5 -18 8 -22 4 -3 5 1 4 10 -1 8 -5 18 -8 22 -4 3
-5 -1 -4 -10z"/>
<path d="M216 2042 c-3 -5 1 -9 9 -9 8 0 12 4 9 9 -3 4 -7 8 -9 8 -2 0 -6 -4
-9 -8z"/>
<path d="M2794 1889 c-3 -6 -2 -15 3 -20 5 -5 9 -1 9 11 0 23 -2 24 -12 9z"/>
<path d="M2869 1883 c-13 -16 -12 -17 4 -4 9 7 17 15 17 17 0 8 -8 3 -21 -13z"/>
<path d="M2910 1839 c0 -5 5 -7 10 -4 6 3 10 8 10 11 0 2 -4 4 -10 4 -5 0 -10
-5 -10 -11z"/>
<path d="M190 1759 c0 -5 5 -7 10 -4 6 3 10 8 10 11 0 2 -4 4 -10 4 -5 0 -10
-5 -10 -11z"/>
<path d="M366 1762 c-3 -5 1 -9 9 -9 8 0 12 4 9 9 -3 4 -7 8 -9 8 -2 0 -6 -4
-9 -8z"/>
<path d="M1875 1749 c-4 -6 -5 -12 -2 -15 2 -3 7 2 10 11 7 17 1 20 -8 4z"/>
<path d="M2750 1680 c0 -5 5 -10 11 -10 5 0 7 5 4 10 -3 6 -8 10 -11 10 -2 0
-4 -4 -4 -10z"/>
<path d="M2875 1591 c-3 -5 -2 -12 3 -15 5 -3 9 1 9 9 0 17 -3 19 -12 6z"/>
<path d="M35 1520 c3 -5 8 -10 11 -10 2 0 4 5 4 10 0 6 -5 10 -11 10 -5 0 -7
-4 -4 -10z"/>
<path d="M110 1520 c0 -5 5 -10 11 -10 5 0 7 5 4 10 -3 6 -8 10 -11 10 -2 0
-4 -4 -4 -10z"/>
<path d="M2110 1520 c0 -5 5 -10 11 -10 5 0 7 5 4 10 -3 6 -8 10 -11 10 -2 0
-4 -4 -4 -10z"/>
<path d="M2707 1479 c7 -7 15 -10 18 -7 3 3 -2 9 -12 12 -14 6 -15 5 -6 -5z"/>
<path d="M216 1398 c3 -5 10 -6 15 -3 13 9 11 12 -6 12 -8 0 -12 -4 -9 -9z"/>
<path d="M526 1398 c3 -5 10 -6 15 -3 13 9 11 12 -6 12 -8 0 -12 -4 -9 -9z"/>
<path d="M270 1359 c0 -5 5 -7 10 -4 6 3 10 8 10 11 0 2 -4 4 -10 4 -5 0 -10
-5 -10 -11z"/>
<path d="M153 1295 c0 -8 4 -12 9 -9 5 3 6 10 3 15 -9 13 -12 11 -12 -6z"/>
<path d="M2910 1279 c0 -5 5 -7 10 -4 6 3 10 8 10 11 0 2 -4 4 -10 4 -5 0 -10
-5 -10 -11z"/>
<path d="M473 1265 c0 -8 4 -12 9 -9 5 3 6 10 3 15 -9 13 -12 11 -12 -6z"/>
<path d="M2713 1265 c0 -8 4 -12 9 -9 5 3 6 10 3 15 -9 13 -12 11 -12 -6z"/>
<path d="M155 1221 c-3 -5 -2 -12 3 -15 5 -3 9 1 9 9 0 17 -3 19 -12 6z"/>
<path d="M566 1182 c-3 -5 1 -9 9 -9 8 0 12 4 9 9 -3 4 -7 8 -9 8 -2 0 -6 -4
-9 -8z"/>
<path d="M656 882 c-3 -5 1 -9 9 -9 8 0 12 4 9 9 -3 4 -7 8 -9 8 -2 0 -6 -4
-9 -8z"/>
<path d="M2540 846 c0 -2 8 -10 18 -17 15 -13 16 -12 3 4 -13 16 -21 21 -21
13z"/>
<path d="M590 799 c0 -5 5 -7 10 -4 6 3 10 8 10 11 0 2 -4 4 -10 4 -5 0 -10
-5 -10 -11z"/>
<path d="M2271 754 c0 -11 3 -14 6 -6 3 7 2 16 -1 19 -3 4 -6 -2 -5 -13z"/>
<path d="M2484 762 c4 -3 14 -7 22 -8 9 -1 13 0 10 4 -4 3 -14 7 -22 8 -9 1
-13 0 -10 -4z"/>
<path d="M791 706 c12 -20 23 -36 25 -36 7 0 -25 58 -36 65 -5 3 -1 -10 11
-29z"/>
<path d="M515 720 c3 -5 8 -10 11 -10 2 0 4 5 4 10 0 6 -5 10 -11 10 -5 0 -7
-4 -4 -10z"/>
<path d="M2176 682 c-3 -5 1 -9 9 -9 8 0 12 4 9 9 -3 4 -7 8 -9 8 -2 0 -6 -4
-9 -8z"/>
<path d="M2540 686 c0 -2 8 -10 18 -17 15 -13 16 -12 3 4 -13 16 -21 21 -21
13z"/>
<path d="M830 660 c0 -5 5 -10 11 -10 5 0 7 5 4 10 -3 6 -8 10 -11 10 -2 0 -4
-4 -4 -10z"/>
<path d="M2106 641 c-3 -4 4 -7 14 -6 27 2 33 10 10 12 -11 1 -22 -2 -24 -6z"/>
<path d="M2070 630 c-9 -6 -10 -10 -3 -10 6 0 15 5 18 10 8 12 4 12 -15 0z"/>
<path d="M826 598 c3 -5 10 -6 15 -3 13 9 11 12 -6 12 -8 0 -12 -4 -9 -9z"/>
<path d="M2040 598 c0 -4 4 -8 9 -8 6 0 12 4 15 8 3 5 -1 9 -9 9 -8 0 -15 -4
-15 -9z"/>
<path d="M2095 580 c3 -5 8 -10 11 -10 2 0 4 5 4 10 0 6 -5 10 -11 10 -5 0 -7
-4 -4 -10z"/>
<path d="M933 565 c0 -8 4 -12 9 -9 5 3 6 10 3 15 -9 13 -12 11 -12 -6z"/>
<path d="M1950 550 c-6 -11 -8 -20 -6 -20 3 0 10 9 16 20 6 11 8 20 6 20 -3 0
-10 -9 -16 -20z"/>
<path d="M1999 568 c-5 -18 -6 -38 -1 -34 7 8 12 36 6 36 -2 0 -4 -1 -5 -2z"/>
<path d="M875 549 c-4 -6 -5 -12 -2 -15 2 -3 7 2 10 11 7 17 1 20 -8 4z"/>
<path d="M940 540 c-9 -6 -10 -10 -3 -10 6 0 15 5 18 10 8 12 4 12 -15 0z"/>
<path d="M1890 520 c0 -5 5 -10 11 -10 5 0 7 5 4 10 -3 6 -8 10 -11 10 -2 0
-4 -4 -4 -10z"/>
<path d="M2016 522 c-3 -5 1 -9 9 -9 8 0 12 4 9 9 -3 4 -7 8 -9 8 -2 0 -6 -4
-9 -8z"/>
<path d="M2076 518 c3 -5 10 -6 15 -3 13 9 11 12 -6 12 -8 0 -12 -4 -9 -9z"/>
<path d="M1015 501 c-3 -5 0 -13 6 -17 8 -5 9 -3 4 6 -6 9 -1 10 16 5 19 -5
21 -4 9 4 -19 13 -27 14 -35 2z"/>
<path d="M1830 501 c0 -6 4 -13 10 -16 6 -3 7 1 4 9 -7 18 -14 21 -14 7z"/>
<path d="M1870 501 c0 -6 4 -13 10 -16 6 -3 7 1 4 9 -7 18 -14 21 -14 7z"/>
<path d="M1802 491 c-11 -7 -10 -9 3 -15 9 -3 13 -11 9 -17 -4 -8 -3 -9 5 -5
8 6 9 12 2 20 -6 7 -8 16 -4 19 9 10 1 8 -15 -2z"/>
<path d="M470 480 c0 -5 5 -10 11 -10 5 0 7 5 4 10 -3 6 -8 10 -11 10 -2 0 -4
-4 -4 -10z"/>
<path d="M1855 471 c-3 -5 -2 -12 3 -15 5 -3 9 1 9 9 0 17 -3 19 -12 6z"/>
<path d="M1015 460 c3 -5 8 -10 11 -10 2 0 4 5 4 10 0 6 -5 10 -11 10 -5 0 -7
-4 -4 -10z"/>
<path d="M1735 460 c3 -5 8 -10 11 -10 2 0 4 5 4 10 0 6 -5 10 -11 10 -5 0 -7
-4 -4 -10z"/>
<path d="M1680 439 c0 -5 5 -7 10 -4 6 3 10 8 10 11 0 2 -4 4 -10 4 -5 0 -10
-5 -10 -11z"/>
<path d="M1154 427 c1 -8 7 -21 14 -29 6 -8 8 -19 4 -23 -4 -5 -1 -5 6 -1 11
7 10 11 -2 24 -8 10 -15 21 -14 25 0 5 -3 11 -5 14 -3 3 -5 -2 -3 -10z"/>
<path d="M1056 422 c-3 -5 1 -9 9 -9 8 0 12 4 9 9 -3 4 -7 8 -9 8 -2 0 -6 -4
-9 -8z"/>
<path d="M1095 420 c3 -5 8 -10 11 -10 2 0 4 5 4 10 0 6 -5 10 -11 10 -5 0 -7
-4 -4 -10z"/>
<path d="M1590 420 c-13 -8 -12 -10 3 -10 9 0 17 5 17 10 0 12 -1 12 -20 0z"/>
<path d="M1656 421 c-3 -4 4 -17 17 -27 22 -19 22 -19 4 2 -9 11 -14 24 -10
27 3 4 4 7 0 7 -3 0 -8 -4 -11 -9z"/>
<path d="M1530 409 c0 -5 -4 -8 -9 -4 -5 3 -12 1 -15 -4 -4 -5 2 -8 11 -7 15
3 33 26 19 26 -3 0 -6 -5 -6 -11z"/>
<path d="M1240 406 c0 -2 7 -9 15 -16 13 -11 14 -10 9 4 -5 14 -24 23 -24 12z"/>
<path d="M1350 400 c0 -5 5 -10 11 -10 5 0 7 5 4 10 -3 6 -8 10 -11 10 -2 0
-4 -4 -4 -10z"/>
<path d="M1450 402 c0 -4 10 -9 22 -9 18 -2 20 0 8 7 -18 12 -30 13 -30 2z"/>
<path d="M1707 399 c7 -7 15 -10 18 -7 3 3 -2 9 -12 12 -14 6 -15 5 -6 -5z"/>
<path d="M1310 376 c7 -7 13 -7 20 0 6 6 3 10 -10 10 -13 0 -16 -4 -10 -10z"/>
<path d="M1550 378 c0 -4 4 -8 9 -8 6 0 12 4 15 8 3 5 -1 9 -9 9 -8 0 -15 -4
-15 -9z"/>
<path d="M1615 380 c3 -5 8 -10 11 -10 2 0 4 5 4 10 0 6 -5 10 -11 10 -5 0 -7
-4 -4 -10z"/>
<path d="M1310 341 c0 -6 4 -13 10 -16 6 -3 7 1 4 9 -7 18 -14 21 -14 7z"/>
<path d="M1994 286 c1 -8 5 -18 8 -22 4 -3 5 1 4 10 -1 8 -5 18 -8 22 -4 3 -5
-1 -4 -10z"/>
<path d="M1726 282 c-3 -5 1 -9 9 -9 8 0 12 4 9 9 -3 4 -7 8 -9 8 -2 0 -6 -4
-9 -8z"/>
<path d="M1806 278 c3 -5 10 -6 15 -3 13 9 11 12 -6 12 -8 0 -12 -4 -9 -9z"/>
<path d="M1915 221 c-3 -5 -2 -12 3 -15 5 -3 9 1 9 9 0 17 -3 19 -12 6z"/>
<path d="M1390 160 c0 -5 5 -10 11 -10 5 0 7 5 4 10 -3 6 -8 10 -11 10 -2 0
-4 -4 -4 -10z"/>
<path d="M1870 159 c0 -5 5 -7 10 -4 6 3 10 8 10 11 0 2 -4 4 -10 4 -5 0 -10
-5 -10 -11z"/>
<path d="M1596 122 c-3 -5 1 -9 9 -9 8 0 12 4 9 9 -3 4 -7 8 -9 8 -2 0 -6 -4
-9 -8z"/>
</g>
</svg>
